<svg width="16" height="16" viewBox="0 0 16 16" fill="none" xmlns="http://www.w3.org/2000/svg">
<path d="M8.00147 1.85085C10.0058 1.85085 10.2431 1.85964 11.0314 1.8948C11.7639 1.92704 12.1595 2.05011 12.4232 2.15267C12.7719 2.28746 13.0239 2.45155 13.2847 2.71235C13.5484 2.97607 13.7096 3.22514 13.8444 3.57384C13.947 3.83757 14.07 4.23608 14.1023 4.96572C14.1374 5.75689 14.1462 5.99424 14.1462 7.99561C14.1462 9.9999 14.1374 10.2373 14.1023 11.0255C14.07 11.7581 13.947 12.1536 13.8444 12.4174C13.7096 12.7661 13.5455 13.0181 13.2847 13.2789C13.021 13.5426 12.7719 13.7038 12.4232 13.8385C12.1595 13.9411 11.761 14.0642 11.0314 14.0964C10.2402 14.1316 10.0028 14.1404 8.00147 14.1404C5.99717 14.1404 5.75982 14.1316 4.97158 14.0964C4.23901 14.0642 3.84343 13.9411 3.5797 13.8385C3.231 13.7038 2.979 13.5397 2.71821 13.2789C2.45448 13.0151 2.29332 12.7661 2.15853 12.4174C2.05597 12.1536 1.9329 11.7551 1.90066 11.0255C1.8655 10.2343 1.85671 9.99697 1.85671 7.99561C1.85671 5.99131 1.8655 5.75396 1.90066 4.96572C1.9329 4.23315 2.05597 3.83757 2.15853 3.57384C2.29332 3.22514 2.45741 2.97314 2.71821 2.71235C2.98193 2.44862 3.231 2.28746 3.5797 2.15267C3.84343 2.05011 4.24194 1.92704 4.97158 1.8948C5.75982 1.85964 5.99717 1.85085 8.00147 1.85085ZM8.00147 0.5C5.96494 0.5 5.71 0.508791 4.91004 0.543954C4.11301 0.579117 3.56505 0.708048 3.09035 0.892655C2.59514 1.08605 2.17611 1.34098 1.76001 1.76001C1.34098 2.17611 1.08605 2.59514 0.892655 3.08742C0.708048 3.56505 0.579117 4.11008 0.543954 4.90711C0.508791 5.71 0.5 5.96493 0.5 8.00147C0.5 10.038 0.508791 10.2929 0.543954 11.0929C0.579117 11.8899 0.708048 12.4379 0.892655 12.9126C1.08605 13.4078 1.34098 13.8268 1.76001 14.2429C2.17611 14.659 2.59514 14.9169 3.08742 15.1073C3.56505 15.292 4.11008 15.4209 4.90711 15.456C5.70707 15.4912 5.962 15.5 7.99854 15.5C10.0351 15.5 10.29 15.4912 11.09 15.456C11.887 15.4209 12.4349 15.292 12.9097 15.1073C13.4019 14.9169 13.821 14.659 14.2371 14.2429C14.6532 13.8268 14.911 13.4078 15.1015 12.9155C15.2861 12.4379 15.415 11.8929 15.4502 11.0958C15.4854 10.2959 15.4941 10.0409 15.4941 8.0044C15.4941 5.96787 15.4854 5.71293 15.4502 4.91297C15.415 4.11594 15.2861 3.56798 15.1015 3.09328C14.9169 2.59514 14.6619 2.17611 14.2429 1.76001C13.8268 1.34391 13.4078 1.08605 12.9155 0.895585C12.4379 0.710979 11.8929 0.582047 11.0958 0.546884C10.2929 0.508791 10.038 0.5 8.00147 0.5Z" fill="#30DFC4"/>
<path d="M8.00173 4.14813C5.87436 4.14813 4.14844 5.87406 4.14844 8.00142C4.14844 10.1288 5.87436 11.8547 8.00173 11.8547C10.1291 11.8547 11.855 10.1288 11.855 8.00142C11.855 5.87406 10.1291 4.14813 8.00173 4.14813ZM8.00173 10.5009C6.62158 10.5009 5.50222 9.38158 5.50222 8.00142C5.50222 6.62127 6.62158 5.50191 8.00173 5.50191C9.38188 5.50191 10.5012 6.62127 10.5012 8.00142C10.5012 9.38158 9.38188 10.5009 8.00173 10.5009Z" fill="#30DFC4"/>
<path d="M12.9066 3.99578C12.9066 4.49393 12.5022 4.89537 12.007 4.89537C11.5089 4.89537 11.1074 4.491 11.1074 3.99578C11.1074 3.49764 11.5118 3.09619 12.007 3.09619C12.5022 3.09619 12.9066 3.50057 12.9066 3.99578Z" fill="#30DFC4"/>
</svg>
