<svg width="17" height="16" viewBox="0 0 17 16" fill="none" xmlns="http://www.w3.org/2000/svg">
<path fill-rule="evenodd" clip-rule="evenodd" d="M0.428345 6.88341C0.428345 3.39731 4.00948 0.571411 8.43088 0.571411C12.8523 0.571411 16.4334 3.39731 16.4284 6.87841C16.4284 10.3645 12.8473 13.1904 8.42588 13.1904C7.94073 13.1904 7.46557 13.1554 7.00543 13.0904C6.54528 13.4155 3.87444 15.2911 3.62436 15.3261C3.62436 15.3261 3.52433 15.3661 3.4343 15.3161C3.34927 15.2661 3.36427 15.131 3.36427 15.131C3.39428 14.951 4.05449 12.6552 4.17953 12.2301C1.92382 11.1148 0.428345 9.13413 0.428345 6.88341ZM3.54415 8.64378C3.54415 8.88386 3.74921 9.08392 4.00429 9.08392C4.25937 9.08392 4.46944 8.88386 4.46944 8.64378V5.90291H5.18967C5.43975 5.90291 5.64481 5.69785 5.64481 5.45277C5.64481 5.20769 5.43975 5.00263 5.18967 5.00263H2.82392C2.57384 5.00263 2.36877 5.20769 2.36877 5.45277C2.36877 5.69785 2.57384 5.90291 2.82392 5.90291H3.54415V8.64378ZM7.67045 8.87385C7.71547 8.99889 7.86552 9.07892 8.05558 9.07892C8.15561 9.07892 8.25564 9.05391 8.34567 9.0139C8.47571 8.95888 8.59575 8.79383 8.4557 8.35869L7.35035 5.45277C7.27533 5.2327 7.03525 5.00263 6.73516 4.99762C6.43506 5.00263 6.19999 5.2327 6.11996 5.45277L5.01461 8.35869C4.87457 8.79383 4.99961 8.95388 5.12465 9.0139C5.21968 9.05891 5.31971 9.07892 5.41974 9.07892C5.6148 9.07892 5.75985 8.99889 5.80486 8.87385L6.03494 8.27366H7.44038L7.67045 8.87385ZM6.74016 6.14799L7.20031 7.45841H6.28001L6.74016 6.14799ZM8.7608 8.58876C8.7608 8.82384 8.95586 9.0139 9.20094 9.0139H10.6814C10.9215 9.0139 11.1215 8.82384 11.1215 8.58876C11.1215 8.35369 10.9265 8.16363 10.6814 8.16363H9.7011V5.45277C9.7011 5.19769 9.49103 4.99262 9.23095 4.99262C8.97087 4.99262 8.7608 5.19769 8.7608 5.45277V8.58876ZM11.3066 8.61877C11.3066 8.87385 11.5117 9.07892 11.7668 9.07892C11.8868 9.07892 12.0068 9.0289 12.0969 8.93387C12.1819 8.84885 12.2319 8.72881 12.2319 8.60877V7.60345L12.392 7.4434L13.4723 8.87886C13.5173 8.93387 13.5723 8.98389 13.6373 9.0139C13.7024 9.04891 13.7724 9.06391 13.8424 9.06391C13.9474 9.06391 14.0425 9.0289 14.1225 8.96888C14.1725 8.93387 14.2125 8.88386 14.2425 8.83384C14.2725 8.78382 14.2926 8.72381 14.3026 8.66379C14.3126 8.60377 14.3076 8.54375 14.2926 8.48373C14.2775 8.42871 14.2475 8.37369 14.2125 8.32368L13.0772 6.8182L14.1275 5.76787C14.1975 5.69785 14.2325 5.59782 14.2275 5.48778C14.2225 5.37775 14.1725 5.27271 14.0925 5.19269C14.0025 5.10766 13.8874 5.05764 13.7724 5.05764C13.6724 5.05764 13.5823 5.09766 13.5173 5.16268L12.2269 6.45309V5.46277C12.2269 5.20769 12.0218 5.00263 11.7668 5.00263C11.5117 5.00263 11.3066 5.20769 11.3066 5.46277V8.61877Z" fill="white"/>
</svg>
