<svg width="24" height="24" viewBox="0 0 24 24" fill="none" xmlns="http://www.w3.org/2000/svg">
<path fill-rule="evenodd" clip-rule="evenodd" d="M3.42847 10.8834C3.42847 7.39732 7.0096 4.57143 11.431 4.57143C15.8524 4.57143 19.4335 7.39732 19.4285 10.8784C19.4285 14.3645 15.8474 17.1904 11.426 17.1904C10.9408 17.1904 10.4657 17.1554 10.0056 17.0904C9.5454 17.4155 6.87456 19.2911 6.62448 19.3261C6.62448 19.3261 6.52445 19.3661 6.43442 19.3161C6.34939 19.2661 6.3644 19.131 6.3644 19.131C6.39441 18.951 7.05462 16.6553 7.17966 16.2301C4.92394 15.1148 3.42847 13.1341 3.42847 10.8834ZM6.54427 12.6438C6.54427 12.8839 6.74933 13.0839 7.00441 13.0839C7.2595 13.0839 7.46956 12.8839 7.46956 12.6438V9.90293H8.18979C8.43987 9.90293 8.64494 9.69786 8.64494 9.45278C8.64494 9.20771 8.43987 9.00264 8.18979 9.00264H5.82404C5.57396 9.00264 5.3689 9.20771 5.3689 9.45278C5.3689 9.69786 5.57396 9.90293 5.82404 9.90293H6.54427V12.6438ZM10.6706 12.8739C10.7156 12.9989 10.8656 13.0789 11.0557 13.0789C11.1557 13.0789 11.2558 13.0539 11.3458 13.0139C11.4758 12.9589 11.5959 12.7938 11.4558 12.3587L10.3505 9.45278C10.2755 9.23271 10.0354 9.00264 9.73528 8.99764C9.43519 9.00264 9.20011 9.23271 9.12009 9.45278L8.01474 12.3587C7.87469 12.7938 7.99973 12.9539 8.12477 13.0139C8.2198 13.0589 8.31983 13.0789 8.41986 13.0789C8.61493 13.0789 8.75997 12.9989 8.80499 12.8739L9.03506 12.2737H10.4405L10.6706 12.8739ZM9.74028 10.148L10.2004 11.4584H9.28014L9.74028 10.148ZM11.7609 12.5888C11.7609 12.8239 11.956 13.0139 12.2011 13.0139H13.6815C13.9216 13.0139 14.1217 12.8239 14.1217 12.5888C14.1217 12.3537 13.9266 12.1636 13.6815 12.1636H12.7012V9.45278C12.7012 9.1977 12.4912 8.99264 12.2311 8.99264C11.971 8.99264 11.7609 9.1977 11.7609 9.45278V12.5888ZM14.3067 12.6188C14.3067 12.8739 14.5118 13.0789 14.7669 13.0789C14.8869 13.0789 15.007 13.0289 15.097 12.9339C15.182 12.8489 15.232 12.7288 15.232 12.6088V11.6035L15.3921 11.4434L16.4724 12.8789C16.5174 12.9339 16.5724 12.9839 16.6375 13.0139C16.7025 13.0489 16.7725 13.0639 16.8425 13.0639C16.9476 13.0639 17.0426 13.0289 17.1226 12.9689C17.1726 12.9339 17.2127 12.8839 17.2427 12.8339C17.2727 12.7838 17.2927 12.7238 17.3027 12.6638C17.3127 12.6038 17.3077 12.5438 17.2927 12.4837C17.2777 12.4287 17.2477 12.3737 17.2127 12.3237L16.0773 10.8182L17.1276 9.76788C17.1976 9.69786 17.2327 9.59783 17.2277 9.4878C17.2227 9.37776 17.1726 9.27273 17.0926 9.1927C17.0026 9.10768 16.8875 9.05766 16.7725 9.05766C16.6725 9.05766 16.5824 9.09767 16.5174 9.16269L15.227 10.4531V9.46279C15.227 9.20771 15.022 9.00264 14.7669 9.00264C14.5118 9.00264 14.3067 9.20771 14.3067 9.46279V12.6188Z" fill="#30DFC4"/>
</svg>
