<svg width="17" height="16" viewBox="0 0 17 16" fill="none" xmlns="http://www.w3.org/2000/svg">
<path fill-rule="evenodd" clip-rule="evenodd" d="M0.428467 6.88344C0.428467 3.39734 4.0096 0.571442 8.431 0.571442C12.8524 0.571442 16.4335 3.39734 16.4285 6.87844C16.4285 10.3645 12.8474 13.1904 8.426 13.1904C7.94085 13.1904 7.4657 13.1554 7.00555 13.0904C6.5454 13.4155 3.87456 15.2911 3.62448 15.3261C3.62448 15.3261 3.52445 15.3661 3.43442 15.3161C3.34939 15.2661 3.3644 15.1311 3.3644 15.1311C3.39441 14.951 4.05462 12.6553 4.17966 12.2301C1.92394 11.1148 0.428467 9.13416 0.428467 6.88344ZM3.54427 8.64381C3.54427 8.88389 3.74933 9.08395 4.00441 9.08395C4.2595 9.08395 4.46956 8.88389 4.46956 8.64381V5.90294H5.18979C5.43987 5.90294 5.64494 5.69788 5.64494 5.4528C5.64494 5.20772 5.43987 5.00266 5.18979 5.00266H2.82404C2.57396 5.00266 2.3689 5.20772 2.3689 5.4528C2.3689 5.69788 2.57396 5.90294 2.82404 5.90294H3.54427V8.64381ZM7.67058 8.87388C7.71559 8.99892 7.86564 9.07895 8.0557 9.07895C8.15573 9.07895 8.25576 9.05394 8.34579 9.01393C8.47583 8.95891 8.59587 8.79386 8.45583 8.35872L7.35048 5.4528C7.27545 5.23273 7.03538 5.00266 6.73528 4.99766C6.43519 5.00266 6.20011 5.23273 6.12009 5.4528L5.01474 8.35872C4.87469 8.79386 4.99973 8.95391 5.12477 9.01393C5.2198 9.05894 5.31983 9.07895 5.41986 9.07895C5.61493 9.07895 5.75997 8.99892 5.80499 8.87388L6.03506 8.27369H7.4405L7.67058 8.87388ZM6.74028 6.14802L7.20043 7.45844H6.28014L6.74028 6.14802ZM8.76092 8.58879C8.76092 8.82387 8.95599 9.01393 9.20106 9.01393H10.6815C10.9216 9.01393 11.1217 8.82387 11.1217 8.58879C11.1217 8.35372 10.9266 8.16366 10.6815 8.16366H9.70122V5.4528C9.70122 5.19772 9.49115 4.99265 9.23107 4.99265C8.97099 4.99265 8.76092 5.19772 8.76092 5.4528V8.58879ZM11.3067 8.6188C11.3067 8.87388 11.5118 9.07895 11.7669 9.07895C11.8869 9.07895 12.007 9.02893 12.097 8.9339C12.182 8.84888 12.232 8.72884 12.232 8.6088V7.60348L12.3921 7.44343L13.4724 8.87889C13.5174 8.9339 13.5724 8.98392 13.6375 9.01393C13.7025 9.04894 13.7725 9.06394 13.8425 9.06394C13.9476 9.06394 14.0426 9.02893 14.1226 8.96891C14.1726 8.9339 14.2127 8.88389 14.2427 8.83387C14.2727 8.78386 14.2927 8.72384 14.3027 8.66382C14.3127 8.6038 14.3077 8.54378 14.2927 8.48376C14.2777 8.42874 14.2477 8.37373 14.2127 8.32371L13.0773 6.81823L14.1276 5.7679C14.1976 5.69788 14.2327 5.59785 14.2277 5.48781C14.2227 5.37778 14.1726 5.27274 14.0926 5.19272C14.0026 5.10769 13.8875 5.05767 13.7725 5.05767C13.6725 5.05767 13.5824 5.09769 13.5174 5.16271L12.227 6.45312V5.4628C12.227 5.20772 12.022 5.00266 11.7669 5.00266C11.5118 5.00266 11.3067 5.20772 11.3067 5.4628V8.6188Z" fill="#30DFC4"/>
</svg>
