<svg width="24" height="24" viewBox="0 0 24 24" fill="none" xmlns="http://www.w3.org/2000/svg">
<path fill-rule="evenodd" clip-rule="evenodd" d="M19.4285 11.0703C19.4285 7.4822 15.8404 4.57143 11.4285 4.57143C7.01658 4.57143 3.42847 7.4822 3.42847 11.0703C3.42847 14.274 6.26601 16.9651 10.1104 17.4777C10.3667 17.5326 10.7328 17.6424 10.8061 17.8804C10.8793 18.0818 10.861 18.393 10.8244 18.6127C10.8244 18.6127 10.7328 19.1802 10.7145 19.29L10.7117 19.3056C10.6722 19.5198 10.571 20.0686 11.4102 19.7294C12.2706 19.3633 16.0235 17.02 17.6894 15.0795C18.8793 13.798 19.4285 12.4982 19.4285 11.0703ZM9.79906 9.34926H9.23155C9.14002 9.34926 9.06679 9.42248 9.06679 9.49571V12.974C9.06679 13.0655 9.14002 13.1204 9.23155 13.1204H9.79906C9.89059 13.1204 9.96382 13.0472 9.96382 12.974V9.49571C9.96382 9.42248 9.89059 9.34926 9.79906 9.34926ZM13.1125 9.34926H13.6617C13.7533 9.34926 13.8265 9.42248 13.8265 9.49571V12.974C13.8265 13.0472 13.7533 13.1204 13.6617 13.1204H13.1675H13.1308H13.1125H13.0942C13.0829 13.1204 13.0786 13.1135 13.0726 13.1038C13.0689 13.0978 13.0646 13.0908 13.0576 13.0838L11.4649 10.9236V12.9923C11.4649 13.0655 11.3917 13.1388 11.3002 13.1388H10.7327C10.6411 13.1388 10.5679 13.0838 10.5679 12.9923V9.51402C10.5679 9.44079 10.6411 9.36757 10.7327 9.36757H11.3002H11.3185L11.3368 9.38587C11.3551 9.38587 11.3551 9.40418 11.3551 9.40418L12.9478 11.5644V9.49571C12.9478 9.42248 13.021 9.34926 13.1125 9.34926ZM8.44414 12.2591H6.92469V9.49481C6.92469 9.40328 6.85146 9.33005 6.75993 9.33005H6.19242C6.10088 9.33005 6.02766 9.40328 6.02766 9.49481V12.9731C6.02766 13.0097 6.04596 13.0463 6.06427 13.0829C6.10088 13.1012 6.1375 13.1195 6.17411 13.1195H8.40753C8.49906 13.1195 8.55398 13.0463 8.55398 12.9548V12.3873C8.6089 12.3324 8.53568 12.2591 8.44414 12.2591ZM16.9023 10.045C16.9023 10.1365 16.8473 10.2097 16.7558 10.2097H15.2364V10.7772H16.7558C16.829 10.7772 16.9023 10.8505 16.9023 10.942V11.5095C16.9023 11.601 16.8473 11.6743 16.7558 11.6743H15.2364V12.1869H16.7558C16.829 12.1869 16.9023 12.2601 16.9023 12.3516V12.9191C16.9023 13.0107 16.8473 13.0839 16.7558 13.0839H14.5224C14.4858 13.0839 14.4492 13.0656 14.4126 13.0473C14.3942 13.0107 14.3759 12.9741 14.3759 12.9374V9.45916C14.3759 9.42255 14.3942 9.38593 14.4126 9.34932C14.4492 9.33101 14.4858 9.31271 14.5224 9.31271H16.7558C16.829 9.31271 16.9023 9.38593 16.9023 9.47747V10.045Z" fill="#30DFC4"/>
</svg>
