<svg width="78" height="38" viewBox="0 0 78 38" fill="none" xmlns="http://www.w3.org/2000/svg">
<path d="M27.8092 30.4868C29.5846 28.5921 35.1683 22.1205 38.4326 20.4526C39.8357 19.7454 41.0527 19.6387 42.3269 20.1991C43.2289 20.5994 43.7873 21.4 43.73 22.5475C43.6728 23.8151 43.3578 27.0309 43.3578 27.8982C43.3578 28.3252 43.4294 28.6855 43.6728 28.6855C43.8732 28.6855 44.4745 28.1651 44.8468 27.8315C48.1684 24.9493 51.2179 21.3199 54.2102 17.6638C55.0406 16.6497 55.8424 16.3028 56.7158 16.4362C57.8611 16.6097 58.9349 17.6105 58.5197 18.758C57.0307 23.0145 57.6893 24.3622 58.5484 24.3622C60.109 24.3756 63.5308 22.6409 67.3535 19.2517C70.4746 16.4362 73.1949 13.2472 75.4141 9.76456C75.7577 9.23083 76.087 8.61703 76.6597 8.64372C77.1322 8.67041 77.3756 9.08405 77.1751 10.1782C76.5738 13.6208 73.696 17.8106 70.1883 21.2132C66.5231 24.7492 62.1706 27.4178 59.0065 27.4178C55.4845 27.4178 54.7114 24.1754 53.838 24.1754C53.6089 24.1754 53.2939 24.4156 52.7642 25.016C51.49 26.4438 46.6937 32.2481 43.5582 32.2615C40.752 32.2748 38.8192 30.4201 38.8622 27.7915C38.8765 26.8708 39.0912 25.6165 39.1199 24.6825C39.1342 24.469 39.0912 24.3489 39.0196 24.3222C38.9481 24.2955 38.8192 24.3489 38.6474 24.469C36.0273 26.4438 28.024 35.117 26.4348 37.0251C25.948 37.6122 25.0031 38.1326 23.9865 37.8257C23.0702 37.5588 22.7696 36.7048 22.7123 35.8509C22.5834 34.0762 23.0559 31.7811 23.1561 31.234C23.3136 30.3934 23.4854 29.6729 23.3852 29.6729C23.285 29.6729 22.8555 29.9531 22.5691 30.1265C20.6936 31.2741 14.2222 35.5973 7.22103 35.4506C4.18577 35.4372 2.00955 34.73 0.592138 33.5958C0.191255 33.2756 0.119669 32.9553 0.248524 32.7285C0.37738 32.5017 0.692359 32.3816 1.07892 32.4883C2.26726 32.7952 4.88731 33.4357 9.59769 32.3549C16.0691 30.8738 22.9986 25.8834 24.5592 24.8292C24.8026 24.6558 24.9744 24.4156 25.0603 24.1487C25.9337 21.3733 27.6374 15.3154 31.0163 9.75122C34.6529 3.77339 39.0196 -0.443113 42.7135 0.0372481C45.6772 0.410863 45.9349 3.3464 45.6056 4.80083C44.8468 8.10999 42.2553 11.8862 39.2774 15.3554C35.0394 20.2925 30.0141 24.6157 28.2674 26.1235C28.1958 26.1903 28.1242 26.257 28.0813 26.337C28.0526 26.4171 27.9954 26.6706 27.9667 26.8174C27.709 28.085 27.4943 29.019 27.2222 30.3267C27.1936 30.4735 27.122 30.7937 27.2795 30.8471C27.437 30.9005 27.6804 30.6336 27.8092 30.4868ZM29.9425 20.1857C30.0141 20.1991 30.2432 19.9456 30.9447 19.3051C32.9348 17.5037 38.676 11.1523 40.9668 6.16185C41.339 5.34791 42.4558 3.10622 41.6254 3.03951C41.0956 2.99948 39.8787 3.54655 38.0604 5.38794C34.9106 8.577 31.6319 15.6223 30.3577 18.9715C30.1716 19.4919 29.8852 20.159 29.9425 20.1857Z" fill="#002855"/>
</svg>
