<svg id="Layer_1" data-name="Layer 1" xmlns="http://www.w3.org/2000/svg" viewBox="0 0 800 600"><defs><style>.cls-1{fill:none;}.cls-2{fill:#30dfc4;}.cls-3{fill:#002855;}</style></defs><rect class="cls-1" width="800" height="600"/><path class="cls-2" d="M488.24,275.42c5.42,3.35,8.91-6.24,10-11.3S499.91,249,492.84,251c-6.68,1.93-12.85,5.87-11.74,13.38S483.7,275.5,488.24,275.42Z"/><path class="cls-3" d="M331.37,360.81c8.73-10,36.18-44.13,52.23-52.93,6.89-3.73,12.88-4.29,19.14-1.34,4.44,2.12,7.18,6.34,6.9,12.39-.28,6.69-1.83,23.65-1.83,28.23,0,2.25.35,4.15,1.55,4.15,1,0,3.94-2.75,5.77-4.51,16.33-15.2,31.32-34.34,46-53.63,4.08-5.35,8-7.18,12.32-6.47,5.63.91,10.91,6.19,8.86,12.24-7.32,22.46-4.08,29.56.14,29.56,7.68.07,24.5-9.08,43.29-26.95a241.1,241.1,0,0,0,39.63-50c1.68-2.82,3.3-6.06,6.12-5.92,2.32.14,3.52,2.33,2.53,8.1-2.95,18.16-17.1,40.26-34.34,58.2-18,18.65-39.42,32.73-55,32.73-17.32,0-21.12-17.1-25.41-17.1-1.13,0-2.68,1.27-5.28,4.43-6.26,7.53-29.84,38.15-45.26,38.22-13.79.07-23.29-9.71-23.08-23.58.07-4.85,1.12-11.47,1.27-16.4.07-1.12-.15-1.76-.5-1.9s-1,.14-1.83.78c-12.88,10.41-52.22,56.16-60,66.23-2.4,3.09-7,5.84-12,4.22-4.5-1.41-6-5.91-6.26-10.42-.64-9.36,1.69-21.46,2.18-24.35.77-4.43,1.62-8.23,1.13-8.23s-2.61,1.47-4,2.39c-9.22,6-41,28.86-75.45,28.08-14.92-.07-25.62-3.8-32.58-9.78-2-1.69-2.33-3.38-1.69-4.58s2.18-1.83,4.08-1.26c5.84,1.62,18.72,5,41.88-.71,31.81-7.81,65.88-34.13,73.55-39.69a7.09,7.09,0,0,0,2.46-3.59c4.29-14.64,12.67-46.6,29.28-75.95,17.88-31.53,39.34-53.77,57.5-51.23,14.57,2,15.84,17.45,14.22,25.12-3.73,17.46-16.47,37.38-31.11,55.68-20.83,26-45.54,48.84-54.12,56.79a4.62,4.62,0,0,0-.92,1.13c-.14.42-.42,1.76-.56,2.53-1.27,6.69-2.32,11.62-3.66,18.51-.14.78-.49,2.47.28,2.75S330.74,361.58,331.37,360.81Zm10.49-54.34c.35.07,1.48-1.26,4.93-4.64,9.78-9.5,38-43,49.27-69.33,1.82-4.29,7.31-16.12,3.23-16.47-2.6-.21-8.58,2.68-17.52,12.39-15.49,16.82-31.6,54-37.87,71.65C343,302.81,341.58,306.33,341.86,306.47Z"/></svg>