<svg width="17" height="16" viewBox="0 0 17 16" fill="none" xmlns="http://www.w3.org/2000/svg">
<path fill-rule="evenodd" clip-rule="evenodd" d="M16.4285 7.07033C16.4285 3.48221 12.8404 0.571442 8.4285 0.571442C4.01658 0.571442 0.428467 3.48221 0.428467 7.07033C0.428467 10.274 3.26601 12.9651 7.11042 13.4777C7.36671 13.5326 7.73285 13.6424 7.80608 13.8804C7.8793 14.0818 7.861 14.393 7.82438 14.6127C7.82438 14.6127 7.73285 15.1802 7.71454 15.29L7.71168 15.3056C7.6722 15.5198 7.57102 16.0687 8.4102 15.7294C9.27061 15.3633 13.0235 13.02 14.6894 11.0795C15.8793 9.79803 16.4285 8.49825 16.4285 7.07033ZM6.79906 5.34927H6.23155C6.14002 5.34927 6.06679 5.4225 6.06679 5.49573V8.974C6.06679 9.06554 6.14002 9.12046 6.23155 9.12046H6.79906C6.89059 9.12046 6.96382 9.04723 6.96382 8.974V5.49573C6.96382 5.4225 6.89059 5.34927 6.79906 5.34927ZM10.1125 5.34927H10.6617C10.7533 5.34927 10.8265 5.4225 10.8265 5.49573V8.974C10.8265 9.04723 10.7533 9.12046 10.6617 9.12046H10.1675H10.1308H10.1125H10.0942C10.0829 9.12046 10.0786 9.11347 10.0726 9.1038C10.0689 9.09783 10.0646 9.09084 10.0576 9.08385L8.46494 6.92365V8.99231C8.46494 9.06554 8.39171 9.13877 8.30018 9.13877H7.73267C7.64113 9.13877 7.56791 9.08385 7.56791 8.99231V5.51403C7.56791 5.44081 7.64113 5.36758 7.73267 5.36758H8.30018H8.31848L8.33679 5.38589C8.3551 5.38589 8.3551 5.40419 8.3551 5.40419L9.94778 7.56439V5.49573C9.94778 5.4225 10.021 5.34927 10.1125 5.34927ZM5.44414 8.25914H3.92469V5.49483C3.92469 5.40329 3.85146 5.33007 3.75993 5.33007H3.19242C3.10088 5.33007 3.02766 5.40329 3.02766 5.49483V8.97311C3.02766 9.00972 3.04596 9.04633 3.06427 9.08294C3.10088 9.10125 3.1375 9.11956 3.17411 9.11956H5.40753C5.49906 9.11956 5.55398 9.04633 5.55398 8.9548V8.38729C5.6089 8.33237 5.53568 8.25914 5.44414 8.25914ZM13.9023 6.04499C13.9023 6.13652 13.8473 6.20975 13.7558 6.20975H12.2364V6.77726H13.7558C13.829 6.77726 13.9023 6.85049 13.9023 6.94202V7.50953C13.9023 7.60106 13.8473 7.67429 13.7558 7.67429H12.2364V8.18688H13.7558C13.829 8.18688 13.9023 8.2601 13.9023 8.35164V8.91915C13.9023 9.01068 13.8473 9.08391 13.7558 9.08391H11.5224C11.4858 9.08391 11.4492 9.0656 11.4126 9.04729C11.3942 9.01068 11.3759 8.97407 11.3759 8.93745V5.45918C11.3759 5.42256 11.3942 5.38595 11.4126 5.34934C11.4492 5.33103 11.4858 5.31272 11.5224 5.31272H13.7558C13.829 5.31272 13.9023 5.38595 13.9023 5.47748V6.04499Z" fill="#30DFC4"/>
</svg>
