<svg width="17" height="16" viewBox="0 0 17 16" fill="none" xmlns="http://www.w3.org/2000/svg">
<path fill-rule="evenodd" clip-rule="evenodd" d="M16.4287 7.0703C16.4287 3.48218 12.8405 0.571411 8.42863 0.571411C4.01671 0.571411 0.428589 3.48218 0.428589 7.0703C0.428589 10.274 3.26613 12.9651 7.11054 13.4777C7.36684 13.5326 7.73297 13.6424 7.8062 13.8804C7.87942 14.0818 7.86112 14.393 7.8245 14.6127C7.8245 14.6127 7.73297 15.1802 7.71466 15.29L7.7118 15.3056C7.67233 15.5197 7.57114 16.0686 8.41032 15.7294C9.27073 15.3632 13.0236 13.02 14.6895 11.0795C15.8795 9.798 16.4287 8.49822 16.4287 7.0703ZM6.79918 5.34924H6.23167C6.14014 5.34924 6.06691 5.42247 6.06691 5.4957V8.97397C6.06691 9.06551 6.14014 9.12043 6.23167 9.12043H6.79918C6.89071 9.12043 6.96394 9.0472 6.96394 8.97397V5.4957C6.96394 5.42247 6.89071 5.34924 6.79918 5.34924ZM10.1127 5.34924H10.6619C10.7534 5.34924 10.8266 5.42247 10.8266 5.4957V8.97397C10.8266 9.0472 10.7534 9.12043 10.6619 9.12043H10.1676H10.131H10.1127H10.0944C10.083 9.12043 10.0787 9.11344 10.0727 9.10377C10.0691 9.0978 10.0647 9.09081 10.0577 9.08381L8.46506 6.92362V8.99228C8.46506 9.06551 8.39183 9.13873 8.3003 9.13873H7.73279C7.64126 9.13873 7.56803 9.08381 7.56803 8.99228V5.514C7.56803 5.44078 7.64126 5.36755 7.73279 5.36755H8.3003H8.3186L8.33691 5.38586C8.35522 5.38586 8.35522 5.40416 8.35522 5.40416L9.9479 7.56436V5.4957C9.9479 5.42247 10.0211 5.34924 10.1127 5.34924ZM5.44427 8.25911H3.92481V5.4948C3.92481 5.40326 3.85158 5.33004 3.76005 5.33004H3.19254C3.10101 5.33004 3.02778 5.40326 3.02778 5.4948V8.97307C3.02778 9.00969 3.04609 9.0463 3.06439 9.08291C3.10101 9.10122 3.13762 9.11953 3.17423 9.11953H5.40765C5.49919 9.11953 5.55411 9.0463 5.55411 8.95477V8.38726C5.60903 8.33234 5.5358 8.25911 5.44427 8.25911ZM13.9024 6.04496C13.9024 6.13649 13.8475 6.20972 13.7559 6.20972H12.2365V6.77723H13.7559C13.8292 6.77723 13.9024 6.85046 13.9024 6.94199V7.5095C13.9024 7.60103 13.8475 7.67426 13.7559 7.67426H12.2365V8.18685H13.7559C13.8292 8.18685 13.9024 8.26007 13.9024 8.35161V8.91912C13.9024 9.01065 13.8475 9.08388 13.7559 9.08388H11.5225C11.4859 9.08388 11.4493 9.06557 11.4127 9.04726C11.3944 9.01065 11.3761 8.97404 11.3761 8.93742V5.45915C11.3761 5.42253 11.3944 5.38592 11.4127 5.34931C11.4493 5.331 11.4859 5.31269 11.5225 5.31269H13.7559C13.8292 5.31269 13.9024 5.38592 13.9024 5.47745V6.04496Z" fill="white"/>
</svg>
