<svg width="18" height="15" viewBox="0 0 18 15" fill="none" xmlns="http://www.w3.org/2000/svg">
<path d="M17.5 6.92679C17.5 5.89333 16.6557 5.05325 15.618 5.05325C15.1115 5.05325 14.6525 5.25583 14.3146 5.58167C13.0325 4.73804 11.2978 4.20113 9.37683 4.13242L10.4273 0.825208L13.272 1.49175L13.2677 1.53283C13.2677 2.37787 13.9583 3.06496 14.8076 3.06496C15.6562 3.06496 16.3461 2.37787 16.3461 1.53283C16.3461 0.687792 15.6555 0 14.8076 0C14.156 0 13.6006 0.406583 13.3761 0.976792L10.3097 0.257833C10.1758 0.22525 10.0398 0.302458 9.99804 0.434208L8.82646 4.1225C6.81621 4.14658 4.99508 4.68775 3.65562 5.55688C3.31987 5.24662 2.87433 5.05254 2.38133 5.05254C1.34362 5.05254 0.5 5.89333 0.5 6.92679C0.5 7.61387 0.877542 8.20958 1.43287 8.53542C1.39604 8.73517 1.37196 8.93704 1.37196 9.14246C1.37196 11.9127 4.77763 14.1667 8.96458 14.1667C13.1515 14.1667 16.5579 11.9127 16.5579 9.14246C16.5579 8.94837 16.5374 8.75712 16.5048 8.56871C17.0941 8.25208 17.5 7.63938 17.5 6.92679ZM5.29967 8.21313C5.29967 7.59829 5.80258 7.0975 6.42025 7.0975C7.03792 7.0975 7.54012 7.59829 7.54012 8.21313C7.54012 8.82796 7.03792 9.32804 6.42025 9.32804C5.80258 9.32804 5.29967 8.82796 5.29967 8.21313ZM11.7179 11.5203C11.1533 12.082 10.2672 12.3555 9.00921 12.3555L9 12.3533L8.99079 12.3555C7.73208 12.3555 6.84596 12.082 6.28212 11.5203C6.17942 11.4183 6.17942 11.2519 6.28212 11.1499C6.38483 11.0472 6.552 11.0472 6.65471 11.1499C7.11512 11.6082 7.87942 11.8306 8.99079 11.8306L9 11.8327L9.00921 11.8306C10.1206 11.8306 10.8849 11.6075 11.3453 11.1492C11.448 11.0465 11.6152 11.0472 11.7179 11.1492C11.8206 11.2519 11.8206 11.4176 11.7179 11.5203ZM11.584 9.32804C10.9663 9.32804 10.4641 8.82796 10.4641 8.21313C10.4641 7.59829 10.9663 7.0975 11.584 7.0975C12.2017 7.0975 12.7039 7.59829 12.7039 8.21313C12.7039 8.82796 12.2017 9.32804 11.584 9.32804Z" fill="white"/>
</svg>
