<svg width="30" height="30" viewBox="0 0 24 24" fill="none" xmlns="http://www.w3.org/2000/svg">
<path d="M20.5 11.9268C20.5 10.8933 19.6557 10.0532 18.618 10.0532C18.1115 10.0532 17.6525 10.2558 17.3146 10.5817C16.0325 9.73804 14.2978 9.20112 12.3768 9.13242L13.4273 5.82521L16.272 6.49175L16.2677 6.53283C16.2677 7.37787 16.9583 8.06496 17.8076 8.06496C18.6562 8.06496 19.3461 7.37787 19.3461 6.53283C19.3461 5.68779 18.6555 5 17.8076 5C17.156 5 16.6006 5.40658 16.3761 5.97679L13.3097 5.25783C13.1758 5.22525 13.0398 5.30246 12.998 5.43421L11.8265 9.1225C9.81621 9.14658 7.99508 9.68775 6.65562 10.5569C6.31987 10.2466 5.87433 10.0525 5.38133 10.0525C4.34362 10.0525 3.5 10.8933 3.5 11.9268C3.5 12.6139 3.87754 13.2096 4.43287 13.5354C4.39604 13.7352 4.37196 13.937 4.37196 14.1425C4.37196 16.9127 7.77762 19.1667 11.9646 19.1667C16.1515 19.1667 19.5579 16.9127 19.5579 14.1425C19.5579 13.9484 19.5374 13.7571 19.5048 13.5687C20.0941 13.2521 20.5 12.6394 20.5 11.9268V11.9268ZM8.29967 13.2131C8.29967 12.5983 8.80258 12.0975 9.42025 12.0975C10.0379 12.0975 10.5401 12.5983 10.5401 13.2131C10.5401 13.828 10.0379 14.328 9.42025 14.328C8.80258 14.328 8.29967 13.828 8.29967 13.2131V13.2131ZM14.7179 16.5203C14.1533 17.082 13.2672 17.3555 12.0092 17.3555L12 17.3533L11.9908 17.3555C10.7321 17.3555 9.84596 17.082 9.28212 16.5203C9.17942 16.4183 9.17942 16.2519 9.28212 16.1499C9.38483 16.0472 9.552 16.0472 9.65471 16.1499C10.1151 16.6082 10.8794 16.8306 11.9908 16.8306L12 16.8327L12.0092 16.8306C13.1206 16.8306 13.8849 16.6075 14.3453 16.1492C14.448 16.0465 14.6152 16.0472 14.7179 16.1492C14.8206 16.2519 14.8206 16.4176 14.7179 16.5203ZM14.584 14.328C13.9663 14.328 13.4641 13.828 13.4641 13.2131C13.4641 12.5983 13.9663 12.0975 14.584 12.0975C15.2017 12.0975 15.7039 12.5983 15.7039 13.2131C15.7039 13.828 15.2017 14.328 14.584 14.328Z" fill="#30DFC4"/>
</svg>
