<svg width="14" height="14" viewBox="0 0 16 12" fill="none" xmlns="http://www.w3.org/2000/svg">
<path fill-rule="evenodd" clip-rule="evenodd" d="M14.2603 1.04274C14.9456 1.22726 15.486 1.76762 15.6705 2.45296C16.0131 3.70502 16 6.31458 16 6.31458C16 6.31458 16 8.91096 15.6705 10.163C15.486 10.8484 14.9456 11.3887 14.2603 11.5732C13.0082 11.9027 7.99995 11.9027 7.99995 11.9027C7.99995 11.9027 3.00488 11.9027 1.73964 11.5601C1.05431 11.3755 0.513943 10.8352 0.329429 10.1498C-6.10352e-05 8.91096 -6.10352e-05 6.3014 -6.10352e-05 6.3014C-6.10352e-05 6.3014 -6.10352e-05 3.70502 0.329429 2.45296C0.513943 1.76762 1.06749 1.21408 1.73964 1.02956C2.99171 0.700073 7.99995 0.700073 7.99995 0.700073C7.99995 0.700073 13.0082 0.700073 14.2603 1.04274ZM6.40492 3.90278L10.5697 6.30147L6.40492 8.70015V3.90278Z" fill="white"/>
</svg>
