<svg width="100" height="117" viewBox="0 0 100 117" fill="none" xmlns="http://www.w3.org/2000/svg">
<g filter="url(#filter0_d)">
<path d="M49.5237 103.223C70.8445 103.223 85.9912 91.9409 85.9468 76.128C85.9912 64.9345 78.6622 56.9392 64.626 55.2958V54.5851C75.1531 53.0748 82.6154 46.0123 82.571 35.7961C82.6154 20.9604 69.201 9.76697 49.7014 9.76697C30.0685 9.76697 15.7658 21.1381 15.5881 37.3063H36.598C36.7757 31.0878 42.3724 26.9124 49.7014 26.9124C56.6751 26.9124 61.4278 31.1322 61.3834 37.2175C61.4278 43.5249 55.8311 47.8779 47.747 47.8779H38.9077V63.5132H47.747C56.9416 63.5132 62.9381 68.0438 62.8492 74.4401C62.9381 80.8807 57.4302 85.367 49.6126 85.367C41.8394 85.367 36.1094 81.2361 35.8873 75.2396H13.767C13.9446 91.6744 28.7359 103.223 49.5237 103.223Z" fill="url(#paint0_linear)" fill-opacity="0.5"/>
<path fill-rule="evenodd" clip-rule="evenodd" d="M64.7155 54.5777C64.6874 54.5819 64.6591 54.586 64.6309 54.59V55.3007C64.6655 55.3048 64.7001 55.3088 64.7346 55.313C69.3269 55.8622 73.1977 57.0938 76.3234 58.8964C82.7053 62.5769 85.9814 68.638 85.9517 76.1329C85.9961 91.9458 70.8495 103.228 49.5287 103.228C32.202 103.228 19.0412 95.2048 15.0362 83.0165C14.2362 80.5818 13.8015 77.9809 13.7719 75.2445H35.8922C36.1143 81.241 41.8443 85.3719 49.6175 85.3719C57.4351 85.3719 62.943 80.8857 62.8542 74.445C62.943 68.0488 56.9465 63.5181 47.7519 63.5181H38.9127V47.8828H47.7519C55.8361 47.8828 61.4328 43.5298 61.3884 37.2224C61.4328 31.1371 56.68 26.9174 49.7063 26.9174C42.3773 26.9174 36.7806 31.0927 36.6029 37.3113H15.5931C15.6232 34.5723 16.0586 31.971 16.8567 29.5394C20.7695 17.6167 33.3993 9.77191 49.7063 9.77191C69.206 9.77191 82.6203 20.9653 82.5759 35.8011C82.602 41.8014 80.0385 46.7139 75.7855 50.0524C72.8167 52.3828 69.0247 53.9464 64.7155 54.5777ZM83.0155 54.0036C84.1044 54.8123 85.1292 55.6963 86.0841 56.657C91.2928 61.898 93.7473 68.756 93.7236 76.1384C93.7447 86.781 88.5687 95.7603 80.3921 101.845C72.3327 107.843 61.4864 111 49.5287 111C26.2719 111 6.24138 97.6141 6.00045 75.3285C5.97801 73.2529 6.78686 71.2545 8.24672 69.7787C9.70657 68.303 11.6961 67.4726 13.7719 67.4726H32.2207C31.5346 66.3141 31.1408 64.9621 31.1408 63.5181V47.8828C31.1408 46.8958 31.3248 45.9518 31.6603 45.0832H15.5931C13.517 45.0832 11.5273 44.2526 10.0674 42.7766C8.60749 41.3005 7.79881 39.3018 7.82162 37.2259C8.06169 15.3794 27.39 2 49.7063 2C71.8047 2 90.3931 15.1582 90.3478 35.7968C90.3731 43.3117 87.5449 49.4819 83.0155 54.0036ZM43.8551 40.1109H47.7519C50.4678 40.1109 52.0873 39.376 52.8361 38.7915C53.4438 38.3171 53.6209 37.8874 53.6166 37.2772C53.6165 37.2559 53.6164 37.2347 53.6165 37.2135C53.6165 37.1976 53.6165 37.1816 53.6167 37.1657C53.623 36.2914 53.3443 35.8871 53.0324 35.6115C52.6407 35.2653 51.6475 34.6893 49.7063 34.6893C47.4642 34.6893 45.9972 35.3306 45.2494 35.9132C44.6082 36.4128 44.3896 36.9041 44.3717 37.5332C44.3457 38.4408 44.165 39.3084 43.8551 40.1109ZM42.5843 71.29H47.7519C51.164 71.29 53.219 72.1401 54.1912 72.8524C54.9917 73.4389 55.0893 73.8827 55.083 74.3371C55.082 74.4088 55.082 74.4805 55.083 74.5522C55.0938 75.3356 54.8422 75.8457 54.2646 76.3206C53.5705 76.8913 52.091 77.6 49.6175 77.6C47.042 77.6 45.3655 76.9098 44.5174 76.2882C43.78 75.7478 43.6723 75.32 43.6588 74.9569C43.6093 73.6185 43.2234 72.3695 42.5843 71.29Z" fill="white"/>
</g>
<defs>
<filter id="filter0_d" x="4" y="0" width="95.7238" height="117" filterUnits="userSpaceOnUse" color-interpolation-filters="sRGB">
<feFlood flood-opacity="0" result="BackgroundImageFix"/>
<feColorMatrix in="SourceAlpha" type="matrix" values="0 0 0 0 0 0 0 0 0 0 0 0 0 0 0 0 0 0 127 0" result="hardAlpha"/>
<feOffset dx="2" dy="2"/>
<feGaussianBlur stdDeviation="2"/>
<feComposite in2="hardAlpha" operator="out"/>
<feColorMatrix type="matrix" values="0 0 0 0 0 0 0 0 0 0 0 0 0 0 0 0 0 0 0.25 0"/>
<feBlend mode="normal" in2="BackgroundImageFix" result="effect1_dropShadow"/>
<feBlend mode="normal" in="SourceGraphic" in2="effect1_dropShadow" result="shape"/>
</filter>
<linearGradient id="paint0_linear" x1="19.7004" y1="-0.196103" x2="116.095" y2="49.4773" gradientUnits="userSpaceOnUse">
<stop offset="0.104167" stop-color="#FED5A5"/>
<stop offset="0.489583" stop-color="#F4ADFF"/>
<stop offset="0.914499" stop-color="#24D6E6"/>
</linearGradient>
</defs>
</svg>
