<svg width="16" height="12" viewBox="0 0 16 12" fill="none" xmlns="http://www.w3.org/2000/svg">
<path fill-rule="evenodd" clip-rule="evenodd" d="M14.2603 1.0428C14.9457 1.22732 15.486 1.76768 15.6705 2.45302C16.0132 3.70508 16 6.31464 16 6.31464C16 6.31464 16 8.91102 15.6705 10.1631C15.486 10.8484 14.9457 11.3888 14.2603 11.5733C13.0083 11.9028 8.00001 11.9028 8.00001 11.9028C8.00001 11.9028 3.00495 11.9028 1.73971 11.5601C1.05437 11.3756 0.514004 10.8352 0.32949 10.1499C0 8.91102 0 6.30146 0 6.30146C0 6.30146 0 3.70508 0.32949 2.45302C0.514004 1.76768 1.06755 1.21414 1.73971 1.02962C2.99177 0.700134 8.00001 0.700134 8.00001 0.700134C8.00001 0.700134 13.0083 0.700134 14.2603 1.0428ZM6.40498 3.90284L10.5697 6.30153L6.40498 8.70021V3.90284Z" fill="#30DFC4"/>
</svg>
