<svg width="100" height="117" viewBox="0 0 100 117" fill="none" xmlns="http://www.w3.org/2000/svg">
<g filter="url(#filter0_d)">
<path d="M16.2043 103.133H84.3197V85.2056H47.027V84.6214L58.0351 74.467C77.9844 57.0787 83.1964 48.2273 83.1964 37.6686C83.1964 21.089 69.6722 9.85626 48.7793 9.85626C28.4255 9.85626 14.8114 21.5833 14.8564 40.3195H35.929C35.929 32.0073 41.0511 27.1996 48.6894 27.1996C56.1929 27.1996 61.6296 31.8275 61.6296 39.4209C61.6296 46.2953 57.3162 50.9681 49.7678 57.7527L16.2043 87.1376V103.133Z" fill="url(#paint0_linear)" fill-opacity="0.5"/>
<path fill-rule="evenodd" clip-rule="evenodd" d="M16.2097 111C11.8678 111 8.34804 107.48 8.34804 103.138V87.143C8.34804 84.8767 9.32599 82.7207 11.0311 81.228L44.5552 51.8775C52.4104 44.8133 53.7733 42.3392 53.7733 39.4262C53.7733 37.6121 53.1828 36.7369 52.6657 36.2627C52.07 35.7166 50.8493 35.0666 48.6948 35.0666C46.5398 35.0666 45.5018 35.713 45.0162 36.1998C44.5379 36.6793 43.796 37.8054 43.796 40.3248C43.796 44.6667 40.2762 48.1864 35.9344 48.1864H14.8617C10.5272 48.1864 7.01053 44.6782 7.00013 40.3437C6.9728 28.9463 11.1658 19.1006 18.9552 12.1873C26.6414 5.36559 37.1365 2 48.7846 2C60.578 2 71.077 5.17083 78.7926 11.4547C86.6491 17.8533 91.0634 27.0599 91.0634 37.6739C91.0634 51.164 84.143 61.6254 66.6532 77.3493H84.3251C88.6669 77.3493 92.1867 80.8691 92.1867 85.2109V103.138C92.1867 107.48 88.6669 111 84.3251 111H16.2097ZM58.0404 74.4724C77.9898 57.0841 83.2018 48.2327 83.2018 37.6739C83.2018 21.0944 69.6775 9.86161 48.7846 9.86161C31.4509 9.86161 19.0051 18.3668 15.7212 32.4632C15.1618 34.8647 14.8682 37.4285 14.8617 40.1401C14.8616 40.2016 14.8616 40.2632 14.8617 40.3248H35.9344C35.9344 32.0126 41.0565 27.205 48.6948 27.205C56.1982 27.205 61.6349 31.8329 61.6349 39.4262C61.6349 46.3007 57.3215 50.9735 49.7731 57.7581L16.2097 87.143V103.138H84.3251V85.2109H47.0323V84.6268L58.0404 74.4724Z" fill="white"/>
</g>
<defs>
<filter id="filter0_d" x="5" y="0" width="93.1867" height="117" filterUnits="userSpaceOnUse" color-interpolation-filters="sRGB">
<feFlood flood-opacity="0" result="BackgroundImageFix"/>
<feColorMatrix in="SourceAlpha" type="matrix" values="0 0 0 0 0 0 0 0 0 0 0 0 0 0 0 0 0 0 127 0" result="hardAlpha"/>
<feOffset dx="2" dy="2"/>
<feGaussianBlur stdDeviation="2"/>
<feComposite in2="hardAlpha" operator="out"/>
<feColorMatrix type="matrix" values="0 0 0 0 0 0 0 0 0 0 0 0 0 0 0 0 0 0 0.5 0"/>
<feBlend mode="normal" in2="BackgroundImageFix" result="effect1_dropShadow"/>
<feBlend mode="normal" in="SourceGraphic" in2="effect1_dropShadow" result="shape"/>
</filter>
<linearGradient id="paint0_linear" x1="10.4952" y1="59.1153" x2="89.0284" y2="59.1153" gradientUnits="userSpaceOnUse">
<stop offset="0.104167" stop-color="#F7D557"/>
<stop offset="0.515625" stop-color="#FF9C57"/>
<stop offset="0.921875" stop-color="#ED7282"/>
</linearGradient>
</defs>
</svg>
