<svg width="24" height="24" viewBox="0 0 24 24" fill="none" xmlns="http://www.w3.org/2000/svg">
<path fill-rule="evenodd" clip-rule="evenodd" d="M18.2603 7.0428C18.9457 7.22732 19.486 7.76768 19.6705 8.45302C20.0132 9.70508 20 12.3146 20 12.3146C20 12.3146 20 14.911 19.6705 16.1631C19.486 16.8484 18.9457 17.3888 18.2603 17.5733C17.0083 17.9028 12 17.9028 12 17.9028C12 17.9028 7.00495 17.9028 5.73971 17.5601C5.05437 17.3756 4.514 16.8352 4.32949 16.1499C4 14.911 4 12.3015 4 12.3015C4 12.3015 4 9.70508 4.32949 8.45302C4.514 7.76768 5.06755 7.21414 5.73971 7.02962C6.99177 6.70013 12 6.70013 12 6.70013C12 6.70013 17.0083 6.70013 18.2603 7.0428ZM10.405 9.90284L14.5697 12.3015L10.405 14.7002V9.90284Z" fill="#30DFC4"/>
</svg>
