<svg width="100" height="117" viewBox="0 0 100 117" fill="none" xmlns="http://www.w3.org/2000/svg">
<g filter="url(#filter0_d)">
<path d="M72.7381 9.94794H51.0796L27.2505 24.221V43.676L48.8619 30.9484H49.4281V103.041H72.7381V9.94794Z" fill="url(#paint0_linear)" fill-opacity="0.6"/>
<path fill-rule="evenodd" clip-rule="evenodd" d="M72.7438 2C77.3036 2 81 5.56086 81 9.95341V103.047C81 107.439 77.3036 111 72.7438 111H49.4338C44.874 111 41.1775 107.439 41.1775 103.047V44.8048L31.5627 50.4673C29.0144 51.968 25.8234 52.026 23.2183 50.6188C20.6131 49.2116 19 46.5587 19 43.6815V24.2265C19 21.4777 20.4734 18.9237 22.8967 17.4723L46.7257 3.19918C48.0343 2.41539 49.5444 2 51.0853 2H72.7438ZM48.8675 30.9539H49.4338V103.047H72.7438V9.95341H51.0853L27.2562 24.2265V43.6815L48.8675 30.9539Z" fill="white"/>
</g>
<defs>
<filter id="filter0_d" x="17.3143" y="0.314322" width="68.7427" height="115.743" filterUnits="userSpaceOnUse" color-interpolation-filters="sRGB">
<feFlood flood-opacity="0" result="BackgroundImageFix"/>
<feColorMatrix in="SourceAlpha" type="matrix" values="0 0 0 0 0 0 0 0 0 0 0 0 0 0 0 0 0 0 127 0" result="hardAlpha"/>
<feOffset dx="1.68568" dy="1.68568"/>
<feGaussianBlur stdDeviation="1.68568"/>
<feComposite in2="hardAlpha" operator="out"/>
<feColorMatrix type="matrix" values="0 0 0 0 0 0 0 0 0 0 0 0 0 0 0 0 0 0 0.5 0"/>
<feBlend mode="normal" in2="BackgroundImageFix" result="effect1_dropShadow"/>
<feBlend mode="normal" in="SourceGraphic" in2="effect1_dropShadow" result="shape"/>
</filter>
<linearGradient id="paint0_linear" x1="27.2505" y1="-6.60202" x2="84.2977" y2="-7.06046" gradientUnits="userSpaceOnUse">
<stop offset="0.0001" stop-color="#8BFFFA"/>
<stop offset="0.376093" stop-color="#4CC1FF"/>
<stop offset="0.647825" stop-color="#FE90E6"/>
<stop offset="0.667887" stop-color="#FF7598"/>
<stop offset="1" stop-color="#FFBE95"/>
</linearGradient>
</defs>
</svg>
