<svg width="24" height="24" viewBox="0 0 24 24" fill="none" xmlns="http://www.w3.org/2000/svg">
<path d="M17.3912 7.07413C16.3077 6.57696 15.1458 6.21067 13.9309 6.00088C13.9088 5.99683 13.8867 6.00695 13.8753 6.02719C13.7259 6.29296 13.5604 6.63969 13.4444 6.91222C12.1378 6.7166 10.8378 6.7166 9.55798 6.91222C9.44204 6.63363 9.27051 6.29296 9.12041 6.02719C9.10901 6.00762 9.08691 5.99751 9.06479 6.00088C7.8506 6.21 6.68869 6.57629 5.6045 7.07413C5.59511 7.07817 5.58706 7.08492 5.58173 7.09369C3.37782 10.3863 2.77408 13.5979 3.07025 16.7698C3.07159 16.7853 3.0803 16.8001 3.09237 16.8096C4.54644 17.8774 5.95496 18.5257 7.33732 18.9554C7.35945 18.9621 7.38289 18.954 7.39697 18.9358C7.72396 18.4893 8.01546 18.0184 8.26538 17.5233C8.28013 17.4943 8.26605 17.4599 8.2359 17.4484C7.77355 17.273 7.3333 17.0592 6.90981 16.8163C6.87631 16.7968 6.87363 16.7489 6.90445 16.7259C6.99356 16.6591 7.08271 16.5896 7.1678 16.5195C7.1832 16.5067 7.20465 16.504 7.22275 16.5121C10.0049 17.7823 13.0169 17.7823 15.7663 16.5121C15.7844 16.5033 15.8058 16.506 15.8219 16.5188C15.907 16.589 15.9961 16.6591 16.0859 16.7259C16.1167 16.7489 16.1147 16.7968 16.0812 16.8163C15.6577 17.0639 15.2175 17.273 14.7544 17.4477C14.7243 17.4592 14.7109 17.4943 14.7256 17.5233C14.9809 18.0177 15.2724 18.4886 15.5934 18.9351C15.6068 18.954 15.6309 18.9621 15.653 18.9554C17.0421 18.5257 18.4506 17.8774 19.9047 16.8096C19.9174 16.8001 19.9255 16.786 19.9268 16.7704C20.2813 13.1035 19.3331 9.91813 17.4133 7.09436C17.4086 7.08492 17.4006 7.07817 17.3912 7.07413ZM8.68085 14.8385C7.84323 14.8385 7.15305 14.0695 7.15305 13.125C7.15305 12.1806 7.82984 11.4116 8.68085 11.4116C9.53854 11.4116 10.222 12.1874 10.2086 13.125C10.2086 14.0695 9.53183 14.8385 8.68085 14.8385ZM14.3296 14.8385C13.492 14.8385 12.8018 14.0695 12.8018 13.125C12.8018 12.1806 13.4786 11.4116 14.3296 11.4116C15.1873 11.4116 15.8708 12.1874 15.8574 13.125C15.8574 14.0695 15.1873 14.8385 14.3296 14.8385Z" fill="#30DFC4"/>
</svg>
