<svg width="24" height="24" viewBox="0 0 17 14" fill="none" xmlns="http://www.w3.org/2000/svg">
<path d="M5.34803 13.6C11.7615 13.6 15.2704 8.36713 15.2704 3.83059C15.2704 3.68348 15.2671 3.5331 15.2605 3.38599C15.9431 2.89997 16.5321 2.29796 17 1.60825C16.3643 1.88673 15.6893 2.0686 14.9982 2.14765C15.7259 1.71817 16.2708 1.04347 16.5318 0.248626C15.8472 0.648096 15.0985 0.929888 14.3179 1.08192C13.7918 0.531631 13.0964 0.167273 12.3389 0.0451806C11.5815 -0.0769117 10.8043 0.0500621 10.1276 0.406471C9.45079 0.762879 8.91211 1.32887 8.59481 2.01694C8.27751 2.70501 8.19926 3.47683 8.37217 4.21308C6.98593 4.14459 5.62979 3.79003 4.39165 3.1724C3.15352 2.55477 2.06103 1.68785 1.18502 0.627843C0.739783 1.38364 0.60354 2.278 0.80398 3.12916C1.00442 3.98031 1.5265 4.72438 2.26412 5.21016C1.71036 5.19284 1.16873 5.04605 0.683984 4.7819V4.8244C0.683488 5.61756 0.961986 6.38641 1.47214 7.00026C1.98229 7.61411 2.6926 8.03507 3.48234 8.19158C2.96937 8.32977 2.43099 8.3499 1.90885 8.25043C2.1317 8.93255 2.56528 9.52915 3.14909 9.95697C3.73289 10.3848 4.43779 10.6225 5.16541 10.6369C3.93013 11.5922 2.40421 12.1104 0.833398 12.108C0.554828 12.1076 0.276533 12.0907 0 12.0576C1.59577 13.0656 3.45208 13.601 5.34803 13.6Z" fill="white"/>
</svg>
